<svg width="89" height="44" viewBox="0 0 89 44" fill="none" xmlns="http://www.w3.org/2000/svg">
<path d="M80.1919 3.85369C81.0139 5.08219 81.8029 6.59769 81.4149 8.22179C80.0759 7.45539 78.9989 6.2041 78.1449 4.9688C77.2849 3.7252 76.3919 2.4028 76.0859 0.869995C77.7749 1.302 79.2869 2.50119 80.1919 3.85369Z" fill="#394149"/>
<path d="M7.59826 8.21916C7.21126 6.59476 8.00186 5.07986 8.82536 3.85206C9.73186 2.50036 11.2444 1.30226 12.9336 0.87146C12.6267 2.40396 11.7323 3.72586 10.8714 4.96866C10.0163 6.20336 8.93776 7.45386 7.59826 8.21916Z" fill="#394149"/>
<path d="M6.41966 11.3352C6.72176 10.0488 6.71506 8.64045 6.42746 7.43385C6.17456 6.37345 5.80656 4.87445 4.59536 4.36865C3.71496 5.78085 3.36106 7.70395 3.87416 9.14495C4.24516 10.1873 4.91236 11.5654 6.29606 11.7787C7.56576 12.0714 8.84966 11.3941 9.86366 10.8349C10.9912 10.2132 12.0956 9.22405 12.7666 8.04815C11.5357 7.42685 10.1339 7.93105 9.07926 8.41425C7.94246 8.93515 6.89816 10.0528 6.41966 11.3352Z" fill="#394149"/>
<path d="M31.0603 12.571V6.11243H28.8553V8.46553H25.5478V6.11243H23.3428V12.571H25.5478V10.2262H28.8553V12.571H31.0603Z" fill="#394149"/>
<path d="M38.3714 6.11243H40.8067L37.3512 10.4401V12.571H35.138V10.4483L31.7236 6.11243H34.2329L36.2734 8.69583L38.3714 6.11243Z" fill="#394149"/>
<path fill-rule="evenodd" clip-rule="evenodd" d="M48.4866 6.66362C48.9227 7.00922 49.1695 7.59343 49.1695 8.44083C49.1695 9.13193 48.9967 9.65023 48.6676 10.0123C48.2233 10.5224 47.4911 10.7527 46.5367 10.761C46.2405 10.7692 43.7064 10.761 43.7064 10.761V12.571H41.4932V6.11243H46.5038C47.3923 6.11243 48.067 6.29342 48.4866 6.66362ZM46.8493 8.94273C46.9152 8.82753 46.9481 8.67942 46.9481 8.47372C46.9481 8.25982 46.9069 8.07883 46.8329 7.98013C46.693 7.77443 46.4297 7.67562 46.0019 7.67562H43.69V9.25533H45.9854C46.4462 9.25533 46.7177 9.14843 46.8493 8.94273Z" fill="#394149"/>
<path d="M56.8537 10.9666V12.571H50.0498V6.11243H56.7967V7.72503H52.2218V8.55603H56.6647V10.1274H52.2218V10.9666H56.8537Z" fill="#394149"/>
<path fill-rule="evenodd" clip-rule="evenodd" d="M65.1154 6.77063C65.4124 7.07503 65.5514 7.49463 65.5514 8.07883C65.5514 8.58073 65.4284 9.00852 65.2224 9.29652C64.9924 9.60912 64.6384 9.87242 64.2024 9.93822L66.1524 12.571H63.7004L62.0964 10.292H60.0974V12.571H57.9004V6.11243H63.0424C64.0624 6.11243 64.7294 6.35923 65.1154 6.77063ZM63.3384 8.62183C63.3964 8.52313 63.4124 8.39143 63.4124 8.28453C63.4124 8.16113 63.3964 8.02942 63.3384 7.94712C63.2234 7.73322 62.9934 7.67562 62.6474 7.67562H60.1054V8.85223H62.6884C63.0424 8.85223 63.2564 8.78643 63.3384 8.62183Z" fill="#394149"/>
<path d="M55.6762 20.6717C55.6762 19.1954 54.7383 18.4195 52.5507 18.1824C52.1951 18.1393 51.1498 18.0315 50.4924 17.9776C48.8005 17.7944 48.2941 17.6975 48.2941 17.2664C48.2941 16.8785 48.6928 16.6953 50.2122 16.6953C51.2899 16.6953 51.8934 16.9 52.1304 17.2125C52.249 17.3634 52.2921 17.4819 52.3029 17.6005H55.4065C55.3741 17.3418 55.2664 16.9754 55.0939 16.6522C54.5336 15.5745 53.1865 14.7124 50.2877 14.7124C47.0224 14.7124 45.2336 15.8655 45.2336 17.3742C45.2336 18.829 46.2465 19.6803 48.9837 19.9282C49.2932 19.9547 49.9579 20.0175 50.5021 20.0689L50.5357 20.0721L50.5418 20.0727L50.5442 20.0729L50.8373 20.1006C52.2705 20.2515 52.6585 20.3484 52.6585 20.8011C52.6585 21.2213 52.2813 21.4476 50.6972 21.4476C49.4687 21.4476 48.7467 21.2644 48.488 20.9519C48.3803 20.8226 48.3048 20.6286 48.2833 20.4993H45.1797C45.212 20.7148 45.2659 21.0597 45.3844 21.3399C45.9125 22.5253 47.2919 23.4305 50.4924 23.4305C53.9301 23.4305 55.6762 22.4606 55.6762 20.6717Z" fill="#394149"/>
<path fill-rule="evenodd" clip-rule="evenodd" d="M33.6737 22.4391C33.997 22.0619 34.1586 21.4907 34.1586 20.9088C34.1586 20.4131 34.0293 19.9389 33.7599 19.6264C33.4366 19.2061 32.8654 18.9044 32.262 18.829C32.6715 18.7751 33.0594 18.5596 33.2857 18.2794C33.5659 17.9453 33.6952 17.4927 33.6952 16.9431C33.6952 16.3935 33.5336 15.9086 33.1672 15.5422C32.7577 15.1219 32.0141 14.8417 30.8503 14.8417H23.5439V23.3012H31.055C32.2512 23.3012 33.178 23.0425 33.6737 22.4391ZM30.6994 17.4496C30.6994 17.6544 30.6347 17.8268 30.527 17.9453C30.3761 18.0854 30.0959 18.1393 29.7295 18.1393H26.3673V16.7599H29.6541C30.0636 16.7599 30.3438 16.8138 30.4946 16.9539C30.6347 17.0724 30.6994 17.2448 30.6994 17.4496ZM31.0227 21.1567C30.8503 21.3183 30.5485 21.383 30.042 21.383H26.3673V19.9713H30.0744C30.5485 19.9713 30.8287 20.0359 30.9903 20.176C31.1197 20.3053 31.1735 20.467 31.1735 20.6825C31.1735 20.8873 31.1304 21.0489 31.0227 21.1567Z" fill="#394149"/>
<path d="M44.3065 21.1998V23.3012H35.3945V14.8417H44.2311V16.9539H38.2394V18.0423H44.0587V20.1006H38.2394V21.1998H44.3065Z" fill="#394149"/>
<path d="M66.1624 16.9647V14.8417H56.0654V16.9647H59.6324V23.3012H62.5844V16.9647H66.1624Z" fill="#394149"/>
<path d="M65.9064 30.7868H65.4314L65.3974 30.3294C65.2524 30.5609 64.9454 30.8388 64.2974 30.8388C63.2024 30.8388 62.6934 30.1788 62.6934 28.4937C62.6934 27.1909 63.0174 26.1429 64.3544 26.1429C65.5134 26.1429 65.8664 26.9015 65.8834 27.7179H65.3044C65.2874 27.1852 65.0494 26.693 64.3664 26.693C63.5444 26.693 63.3064 27.1852 63.3064 28.5112C63.3064 29.8951 63.6024 30.3294 64.3784 30.3294C64.9224 30.3294 65.2404 30.0283 65.3454 29.6693V28.8065H64.1754V28.2795H65.9004V29.6114C65.9004 30.0093 65.9044 30.434 65.9054 30.6475L65.9064 30.7491V30.7868Z" fill="#394149"/>
<path fill-rule="evenodd" clip-rule="evenodd" d="M23.6537 29.6345H25.275L25.6108 30.7868H26.2246L24.8812 26.2009H24.1343L22.6982 30.7868H23.3062L23.6537 29.6345ZM25.1302 29.1192H23.81C23.81 29.1192 24.3832 27.2663 24.3948 27.2258C24.4006 27.1968 24.4933 26.7857 24.4933 26.7857L24.5574 27.0898L24.5859 27.2258C24.5917 27.2547 25.1302 29.1192 25.1302 29.1192Z" fill="#394149"/>
<path d="M30.6196 26.2009H31.1755L30.0927 30.7868H29.4036C29.4036 30.7868 28.6335 27.22 28.6335 27.0694C28.6277 27.22 27.8402 30.7868 27.8402 30.7868H27.1512L26.0684 26.2009H26.6937C26.6937 26.2009 27.5333 29.8314 27.5333 29.9762C27.5333 29.8314 28.3035 26.2009 28.3035 26.2009H28.9925C28.9925 26.2009 29.7626 29.8372 29.7626 29.9762C29.7626 29.8372 30.6196 26.2009 30.6196 26.2009Z" fill="#394149"/>
<path fill-rule="evenodd" clip-rule="evenodd" d="M33.5533 29.6345H31.932L31.5846 30.7868H30.9766L32.4126 26.2009H33.1596L34.503 30.7868H33.8892L33.5533 29.6345ZM32.0884 29.1192H33.4086C33.4086 29.1192 32.8701 27.2547 32.8643 27.2258L32.8205 27.0171L32.7716 26.7857C32.7716 26.7857 32.679 27.1968 32.6732 27.2258C32.6616 27.2663 32.0884 29.1192 32.0884 29.1192Z" fill="#394149"/>
<path fill-rule="evenodd" clip-rule="evenodd" d="M36.7344 26.2009C37.4408 26.2009 37.823 26.5309 37.823 27.4921C37.823 28.3086 37.5161 28.5807 37.1976 28.6733L38.0778 30.7868H37.4408L36.6244 28.7892H35.5127V30.7868H34.9336V26.2009H36.7344ZM36.6476 28.268C37.105 28.268 37.215 28.0306 37.215 27.5095C37.215 26.9189 37.0413 26.7394 36.6186 26.7394H35.5184V28.268H36.6476Z" fill="#394149"/>
<path fill-rule="evenodd" clip-rule="evenodd" d="M41.6781 28.4186C41.6781 29.5014 41.5971 29.9414 41.3655 30.2715C41.1339 30.59 40.7691 30.7868 40.1784 30.7868H38.6035V26.2009H40.1379C40.717 26.2009 41.1686 26.3746 41.3771 26.6873C41.6087 27.0231 41.6781 27.44 41.6781 28.4186ZM40.0569 30.2425C40.4101 30.2425 40.7054 30.1499 40.8559 29.9472C41.0181 29.7272 41.0644 29.2813 41.0644 28.4186C41.0644 27.6948 41.0238 27.3068 40.8559 27.0578C40.6996 26.8436 40.3985 26.7509 40.0453 26.7509H39.1883V30.2425H40.0569Z" fill="#394149"/>
<path d="M47.7875 26.2009H48.3434L47.2606 30.7868H46.5715C46.5715 30.7868 45.8014 27.22 45.8014 27.0694C45.7956 27.22 45.0081 30.7868 45.0081 30.7868H44.3191L43.2363 26.2009H43.8616C43.8616 26.2009 44.7012 29.8314 44.7012 29.9762C44.7012 29.8314 45.4713 26.2009 45.4713 26.2009H46.1604C46.1604 26.2009 46.9305 29.8372 46.9305 29.9762C46.9305 29.8372 47.7875 26.2009 47.7875 26.2009Z" fill="#394149"/>
<path d="M49.3669 26.2009V30.7868H48.7646V26.2009H49.3669Z" fill="#394149"/>
<path d="M53.137 26.2009V30.7868H52.4711L50.7629 27.2315V30.7868H50.2012V26.2009H50.9019L52.5695 29.704V26.2009H53.137Z" fill="#394149"/>
<path d="M56.8917 26.2009V30.7868H56.2257L54.5178 27.2315V30.7868H53.9561V26.2009H54.6568L56.3247 29.704V26.2009H56.8917Z" fill="#394149"/>
<path d="M58.312 26.2009V30.7868H57.71V26.2009H58.312Z" fill="#394149"/>
<path d="M62.0825 26.2009V30.7868H61.4165L59.7085 27.2315V30.7868H59.1465V26.2009H59.8475L61.5155 29.704V26.2009H62.0825Z" fill="#394149"/>
<path d="M30.1725 39.8254L29.509 37.7832L28.8454 39.8254H26.6982L28.4353 41.0876L27.7718 43.1298L29.509 41.8676L31.2462 43.1298L30.5826 41.0876L32.3198 39.8254H30.1725Z" fill="#394149"/>
<path d="M37.8461 39.8257L37.169 37.7834L36.4919 39.8257H34.3008L36.0735 41.0877L35.3964 43.13L37.169 41.8679L38.9417 43.13L38.2646 41.0877L40.0372 39.8257H37.8461Z" fill="#394149"/>
<path d="M45.4467 39.8257L44.7696 37.7834L44.0925 39.8257H41.9014L43.674 41.0877L42.9969 43.13L44.7696 41.8679L46.5422 43.13L45.8651 41.0877L47.6378 39.8257H45.4467Z" fill="#394149"/>
<path d="M53.0453 39.8257L52.3682 37.7834L51.6911 39.8257H49.5L51.2726 41.0877L50.5955 43.13L52.3682 41.8679L54.1408 43.13L53.4637 41.0877L55.2364 39.8257H53.0453Z" fill="#394149"/>
<path d="M60.6918 39.8257L60.0288 37.7834L59.3648 39.8257H57.2178L58.9548 41.0877L58.2918 43.13L60.0288 41.8679L61.7658 43.13L61.1018 41.0877L62.8398 39.8257H60.6918Z" fill="#394149"/>
<path d="M2.509 14.8065C3.1334 15.7591 4.0996 16.9523 5.5084 16.9183C6.78951 16.9823 7.8963 16.108 8.7679 15.3783C9.7066 14.5924 10.5539 13.4431 10.9116 12.2006C9.6013 11.8194 8.34681 12.5256 7.41131 13.1917C6.43441 13.8874 5.6831 15.1606 5.5217 16.4679C5.5096 15.1582 5.1551 13.8055 4.5836 12.7158C4.0611 11.7196 3.33301 10.373 2.03401 10.1038C1.52221 11.6539 1.6855 13.5505 2.509 14.8065Z" fill="#394149"/>
<path d="M5.92513 22.0489C4.61763 22.268 3.34223 21.4669 2.51393 20.5246C1.44753 19.3114 0.813028 17.6839 0.942428 16.0546C2.28563 16.0887 3.30293 17.2498 4.05483 18.1278C4.86463 19.0734 5.52813 20.3175 5.84643 21.6009C5.70643 20.3219 6.13583 18.9408 6.93293 18.0874C7.70233 17.2636 8.78013 16.3658 10.1211 16.5099C10.0922 17.8068 9.44213 19.0424 8.77163 19.9678C8.14663 20.8302 7.18383 21.8969 5.92513 22.0489Z" fill="#394149"/>
<path d="M3.51029 26.3583C4.71449 27.1423 6.17499 27.9183 7.70989 27.331C8.96909 26.8855 9.76969 25.618 10.2621 24.4546C10.7837 23.2219 11.1321 21.8005 10.8909 20.4513C9.50719 20.5741 8.35979 21.5641 7.75039 22.7726C7.11329 24.036 6.99109 25.5398 7.48049 26.8644C6.75739 25.5017 5.69989 24.3991 4.57969 23.3803C3.56139 22.4542 2.09459 21.4786 0.617188 21.6621C0.898288 23.4886 2.01289 25.3835 3.51029 26.3583Z" fill="#394149"/>
<path d="M10.8117 32.2688C11.9967 31.5604 12.4736 30.0698 12.6685 28.7925C12.8786 27.415 12.8696 25.8958 12.2975 24.589C10.9227 24.973 9.97897 26.2104 9.66737 27.5657C9.33817 28.9976 9.61597 30.5237 10.4168 31.7429C9.35227 30.5216 7.93677 29.5132 6.58027 28.8061C5.26997 28.1231 3.66247 27.2993 2.08887 27.7968C2.84767 29.6487 4.47087 31.3729 6.26987 32.0861C7.66307 32.6383 9.35797 33.1844 10.8117 32.2688Z" fill="#394149"/>
<path d="M16.4295 32.7482C16.6034 34.0778 16.5985 35.7642 15.5662 36.7876C14.2762 38.108 12.2798 37.8532 10.74 37.5627C8.67283 37.1724 6.34583 35.7625 5.09863 33.8852C6.62183 33.0465 8.48473 33.583 9.99273 34.0173L10.0788 34.042C11.7621 34.5263 13.5559 35.3063 15.0561 36.3721C13.8589 35.2903 12.9866 33.7025 12.9439 32.1021C12.9055 30.6707 13.5268 29.1393 14.8638 28.457C15.7972 29.6821 16.2343 31.255 16.4295 32.7482Z" fill="#394149"/>
<path d="M22.4206 40.5524C23.1808 39.1053 22.4276 37.4069 21.8274 36.1516C21.1178 34.6676 20.1483 33.1552 18.7608 32.069C17.4285 33.2172 17.5552 34.8601 17.9513 36.2879C18.4223 37.9856 20.0552 39.4328 21.7461 40.2575C19.7878 39.5272 17.6491 39.0889 15.6143 38.9595L15.4082 38.9462C13.7735 38.8397 11.6454 38.7011 10.3428 39.8974C12.3123 41.5717 15.1098 42.5377 17.5754 42.4875C19.2277 42.4539 21.4947 42.2584 22.4206 40.5524Z" fill="#394149"/>
<path d="M82.5911 11.3397C82.1141 10.0564 81.0701 8.93745 79.9341 8.41555C78.8791 7.93155 77.4781 7.42645 76.2471 8.04665C76.9171 9.22305 78.0201 10.2129 79.1471 10.8355C80.1601 11.3953 81.4431 12.0735 82.7131 11.782C84.0971 11.57 84.7661 10.1922 85.1381 9.14994C85.6531 7.70964 85.3011 5.78615 84.4221 4.37305C83.2101 4.87815 82.8401 6.37675 82.5871 7.43705C82.2981 8.64395 82.2901 10.0527 82.5911 11.3397Z" fill="#394149"/>
<path d="M81.5966 13.1944C82.5726 13.8904 83.3217 15.1629 83.4827 16.4693C83.4967 15.1603 83.8527 13.8089 84.4247 12.7203C84.9477 11.7244 85.6776 10.3784 86.9766 10.1101C87.4866 11.6607 87.3217 13.5572 86.4967 14.8125C85.8727 15.7634 84.9067 16.9541 83.5007 16.9222C82.2177 16.9877 81.1097 16.1113 80.2377 15.3801C79.2997 14.5934 78.4537 13.4435 78.0977 12.2008C79.4077 11.8204 80.6616 12.5276 81.5966 13.1944Z" fill="#394149"/>
<path d="M83.1518 21.6094C83.2948 20.3293 82.8668 18.9453 82.0688 18.0902C81.3008 17.2658 80.2238 16.3672 78.8828 16.5103C78.9098 17.8072 79.5588 19.0434 80.2288 19.9693C80.8528 20.8318 81.8138 21.8985 83.0718 22.0522C84.3798 22.2737 85.6568 21.473 86.4868 20.5308C87.5538 19.3185 88.1898 17.6915 88.0628 16.062C86.7188 16.0952 85.7008 17.2554 84.9478 18.1328C84.1358 19.079 83.4708 20.3245 83.1518 21.6094Z" fill="#394149"/>
<path d="M81.2484 22.775C81.8844 24.0391 82.0054 25.5432 81.5144 26.8674C82.2384 25.5049 83.2974 24.403 84.4184 23.3849C85.4374 22.4595 86.9054 21.4852 88.3824 21.6697C88.1004 23.4961 86.9834 25.3902 85.4854 26.3638C84.2814 27.1458 82.8224 27.9202 81.2894 27.3353C80.0284 26.8906 79.2274 25.6205 78.7354 24.4551C78.2144 23.222 77.8674 21.8004 78.1104 20.4513C79.4934 20.5752 80.6404 21.5661 81.2484 22.775Z" fill="#394149"/>
<path d="M78.5751 31.7406C79.3751 30.5226 79.6541 28.998 79.3271 27.5668C79.0171 26.2112 78.0741 24.9731 76.6991 24.5881C76.1261 25.8943 76.1161 27.4134 76.3241 28.7912C76.5181 30.066 76.9921 31.5536 78.1701 32.2646C79.6251 33.1874 81.3241 32.6416 82.7191 32.0896C84.5191 31.3777 86.1441 29.6547 86.9041 27.8032C85.3311 27.3047 83.7231 28.1273 82.4121 28.8093C81.0561 29.515 79.6401 30.5213 78.5751 31.7406Z" fill="#394149"/>
<path d="M72.5592 32.7443C72.3842 34.0736 72.3872 35.7599 73.4192 36.7842C74.7072 38.1056 76.7042 37.8522 78.2442 37.5627C80.3122 37.174 82.6402 35.7656 83.8892 33.8894C82.3672 33.0497 80.5032 33.5846 78.9952 34.0177L78.9082 34.0425C77.2252 34.5253 75.4312 35.3037 73.9302 36.3679C75.1282 35.287 76.0012 33.7005 76.0452 32.1007C76.0852 30.6694 75.4652 29.1375 74.1292 28.4541C73.1942 29.6785 72.7562 31.2512 72.5592 32.7443Z" fill="#394149"/>
<path d="M71.404 42.4826C69.752 42.4477 67.485 42.2506 66.561 40.5438L66.548 40.5204C65.81 39.0777 66.56 37.3915 67.158 36.1436C67.869 34.6601 68.84 33.1484 70.228 32.0634C71.56 33.2125 71.431 34.8552 71.034 36.2826C70.561 37.9801 68.927 39.4263 67.235 40.2496C69.194 39.5208 71.333 39.0841 73.368 38.9561L73.575 38.9429C75.21 38.8377 77.338 38.7009 78.639 39.8979C76.668 41.5705 73.87 42.5346 71.404 42.4826Z" fill="#394149"/>
</svg>
