<svg width="75" height="60" viewBox="0 0 75 60" fill="none" xmlns="http://www.w3.org/2000/svg">
<path d="M25.1633 20.621C25.1633 20.4686 25.1633 18.2513 25.1633 18.2513H23.8457C23.8457 18.2513 23.8457 20.4342 23.8457 20.5031C23.8457 20.9062 23.4721 21.1766 22.8428 21.1766C22.184 21.1766 21.8251 20.916 21.8251 20.4981C21.8251 20.4293 21.8251 18.2513 21.8251 18.2513H20.4927C20.4927 18.2513 20.4927 20.3211 20.4927 20.4981C20.4927 21.6682 21.4514 22.1648 22.7887 22.1648C24.2194 22.1648 25.1633 21.6633 25.1633 20.621Z" fill="#394149"/>
<path d="M29.6004 22.1107V21.0832H27.2504V18.2513H25.918V22.1107H29.6004Z" fill="#394149"/>
<path d="M33.5603 19.2199V18.2513H28.9536V19.2199H30.5809V22.1107H31.928V19.2199H33.5603Z" fill="#394149"/>
<path d="M35.3315 22.1107V18.2513H33.9795V22.1107H35.3315Z" fill="#394149"/>
<path d="M41.5343 22.1107V18.2513H39.8676L38.8155 20.567L37.8126 18.2513H36.0918V22.1107H37.3455V20.0262L38.2501 22.1107H39.3711L40.2855 20.0262V22.1107H41.5343Z" fill="#394149"/>
<path d="M43.6228 21.3978H45.7074L46.0467 22.1107H47.4675L45.5206 18.2513H43.9326L41.8726 22.1107H43.2639L43.6228 21.3978ZM45.2895 20.5325H44.0555L44.5422 19.6033L44.6897 19.2494L44.8274 19.5984L45.2895 20.5325Z" fill="#394149"/>
<path d="M51.646 19.2199V18.2513H47.0396V19.2199H48.6669V22.1107H50.014V19.2199H51.646Z" fill="#394149"/>
<path d="M56.126 22.1107V21.152H53.359V20.6505H56.013V19.7115H53.359V19.2149H56.092V18.2513H52.061V22.1107H56.126Z" fill="#394149"/>
<path d="M30.5403 24.1624H29.2669C29.2669 24.1624 28.436 26.5911 28.436 26.6501C28.436 26.5911 27.6592 24.1624 27.6592 24.1624H26.2777C26.2777 24.1624 25.5058 26.5911 25.5058 26.6501C25.5058 26.5911 24.67 24.1624 24.67 24.1624H23.2393L24.6848 28.0218H26.1253C26.1253 28.0218 26.9021 25.716 26.907 25.6521C26.9119 25.716 27.6838 28.0218 27.6838 28.0218H29.1292L30.5403 24.1624Z" fill="#394149"/>
<path d="M32.2827 28.0218V24.1624H30.9307V28.0218H32.2827Z" fill="#394149"/>
<path d="M37.5416 28.0218V24.1624H36.283V26.2617L34.4295 24.1624H33.043V28.0218H34.3115V25.8733L36.224 28.0218H37.5416Z" fill="#394149"/>
<path d="M42.8086 28.0218V24.1624H41.55V26.2617L39.6965 24.1624H38.3101V28.0218H39.5785V25.8733L41.491 28.0218H42.8086Z" fill="#394149"/>
<path d="M47.643 28.0218V27.0631H44.8751V26.5616H47.5299V25.6226H44.8751V25.126H47.6086V24.1624H43.5771V28.0218H47.643Z" fill="#394149"/>
<path d="M52.84 25.3374C52.84 24.9884 52.756 24.7376 52.579 24.5557C52.348 24.3099 51.95 24.1624 51.34 24.1624H48.2676V28.0218H49.5803V26.66H50.775L51.734 28.0218H53.199L52.034 26.4485C52.294 26.4092 52.506 26.2519 52.643 26.0651C52.766 25.893 52.84 25.6373 52.84 25.3374ZM51.562 25.4603C51.562 25.5243 51.552 25.6029 51.517 25.6619C51.468 25.7602 51.34 25.7996 51.129 25.7996H49.5852V25.0965H51.104C51.311 25.0965 51.449 25.1309 51.517 25.2588C51.552 25.3079 51.562 25.3866 51.562 25.4603Z" fill="#394149"/>
<path d="M25.7175 31.8188C25.7175 31.7557 25.7175 29.9329 25.7175 29.9329H25.2572C25.2572 29.9329 25.2572 31.7482 25.2572 31.7891C25.2572 32.2271 24.8451 32.4759 24.2511 32.4759C23.5495 32.4759 23.2042 32.2086 23.2042 31.7854C23.2042 31.7445 23.2042 29.9329 23.2042 29.9329H22.7402C22.7402 29.9329 22.7402 31.7 22.7402 31.7705C22.7402 32.5427 23.3416 32.8842 24.2326 32.8842C25.1532 32.8842 25.7175 32.5204 25.7175 31.8188Z" fill="#394149"/>
<path d="M29.0203 32.8471V32.4202H27.0119V29.9329H26.5479V32.8471H29.0203Z" fill="#394149"/>
<path d="M31.6572 30.3561V29.9329H28.561V30.3561H29.8752V32.8471H30.343V30.3561H31.6572Z" fill="#394149"/>
<path d="M34.9568 30.757C34.9568 30.5491 34.9122 30.3969 34.8343 30.2744C34.6969 30.0702 34.4333 29.9329 33.9953 29.9329H32.1094V32.8471H32.566V31.6183H33.895L34.708 32.8471H35.2426L34.3628 31.5403C34.5855 31.5144 34.76 31.3881 34.8528 31.2248C34.9197 31.1134 34.9568 30.9501 34.9568 30.757ZM34.4964 30.7941C34.4964 30.8758 34.4779 30.9761 34.4445 31.0429C34.3851 31.1505 34.2477 31.2062 34.025 31.2099H32.5697C32.5697 31.2025 32.5697 30.3487 32.5697 30.3487H33.9396C34.218 30.3487 34.3665 30.4155 34.4445 30.5417C34.4779 30.6011 34.4964 30.7013 34.4964 30.7941Z" fill="#394149"/>
<path d="M36.2776 32.1269H38.093L38.4642 32.8471H38.9617L37.4841 29.9329H36.9384L35.4126 32.8471H35.8989L36.2776 32.1269ZM37.8999 31.7148H36.4781L37.0683 30.5974L37.1983 30.3264L37.3282 30.5974L37.8999 31.7148Z" fill="#394149"/>
<path d="M43.67 32.5687C43.7851 32.435 43.8371 32.2457 43.8371 32.0415C43.8371 31.8485 43.7814 31.6554 43.6663 31.5366C43.5512 31.4253 43.3656 31.3325 43.1614 31.3139C43.2802 31.2953 43.373 31.2211 43.4361 31.1431C43.5364 31.028 43.5957 30.8424 43.5957 30.6568C43.5957 30.46 43.5364 30.2818 43.4101 30.1593C43.2728 30.022 43.0389 29.9329 42.7122 29.9329H40.752V32.8471H42.857C43.2505 32.8471 43.5252 32.7469 43.67 32.5687ZM43.1168 30.7496C43.1168 30.8795 43.076 30.9946 43.0055 31.0614C42.9349 31.1394 42.8161 31.1728 42.6899 31.1728H41.2049V30.3338H42.6045C42.7753 30.3338 42.9052 30.3672 42.9943 30.4489C43.0723 30.5231 43.1168 30.6308 43.1168 30.7496ZM43.2653 32.2865C43.1725 32.3905 43.0129 32.4425 42.779 32.4425H41.2049V31.5775H42.7902C43.0055 31.5775 43.154 31.622 43.2431 31.7074C43.3247 31.7854 43.3582 31.8856 43.3582 32.0007C43.3582 32.1195 43.3322 32.2197 43.2653 32.2865Z" fill="#394149"/>
<path d="M47.2072 32.8471V32.4202H44.9427V31.5886H47.1181V31.1654H44.9427V30.3561H47.1812V29.9329H44.4897V32.8471H47.2072Z" fill="#394149"/>
<path d="M50.834 31.9857C50.834 31.5105 50.519 31.2655 49.743 31.1764C49.6127 31.1579 49.3305 31.1282 49.1783 31.1096C48.4581 31.0242 48.2391 30.9277 48.2391 30.679C48.2391 30.4377 48.4804 30.3003 49.208 30.3003C49.772 30.3003 50.062 30.4117 50.207 30.6121C50.248 30.6678 50.27 30.7347 50.281 30.7866H50.778C50.764 30.7012 50.73 30.5824 50.678 30.4859C50.478 30.1407 50.066 29.8919 49.208 29.8919C48.1834 29.8882 47.7602 30.2595 47.7602 30.7198C47.7602 31.1801 48.0906 31.414 48.9482 31.5143C49.0967 31.5328 49.3602 31.5625 49.4902 31.5774C50.155 31.659 50.363 31.7593 50.363 32.0377C50.363 32.2939 50.125 32.4795 49.3639 32.4795C48.7403 32.4795 48.4061 32.3681 48.2725 32.1528C48.2317 32.0934 48.2057 32.0006 48.202 31.9375H47.7119C47.7231 32.0711 47.7602 32.2159 47.827 32.331C48.0201 32.6837 48.473 32.8879 49.3491 32.8879C50.396 32.8879 50.834 32.55 50.834 31.9857Z" fill="#394149"/>
<path d="M54.1634 30.3561V29.9329H51.0674V30.3561H52.3814V32.8471H52.8494V30.3561H54.1634Z" fill="#394149"/>
<path d="M21.426 35.38C21.426 35.083 21.3666 34.8825 21.2663 34.7303C21.1253 34.5112 20.8505 34.3962 20.3716 34.3962H18.5303V37.3104H18.9906V36.36C18.9906 36.36 20.29 36.36 20.3531 36.36C20.8023 36.3563 21.1104 36.2524 21.2738 36.0148C21.3777 35.87 21.426 35.6621 21.426 35.38ZM20.9582 35.38C20.9582 35.5284 20.9433 35.6398 20.8951 35.7141C20.8097 35.8514 20.6352 35.9368 20.2751 35.9368C20.2417 35.9368 18.9906 35.9368 18.9906 35.9368V34.812H20.29C20.6278 34.812 20.8023 34.8899 20.8951 35.0421C20.9396 35.1089 20.9582 35.2315 20.9582 35.38Z" fill="#394149"/>
<path d="M24.7863 37.3104V36.8835H22.5217V36.0519H24.6972V35.6287H22.5217V34.8194H24.7603V34.3962H22.0688V37.3104H24.7863Z" fill="#394149"/>
<path d="M28.3274 35.2203C28.3274 35.0124 28.2829 34.8602 28.2049 34.7377C28.0675 34.5335 27.804 34.3962 27.3659 34.3962H25.48V37.3104H25.9366V36.0816H27.2657L28.0787 37.3104H28.6133L27.7334 36.0036C27.9562 35.9777 28.1307 35.8514 28.2235 35.6881C28.2903 35.5767 28.3274 35.4134 28.3274 35.2203ZM27.8671 35.2574C27.8671 35.3391 27.8485 35.4394 27.8151 35.5062C27.7557 35.6138 27.6183 35.6695 27.3956 35.6732H25.9403C25.9403 35.6658 25.9403 34.812 25.9403 34.812H27.3102C27.5886 34.812 27.7371 34.8788 27.8151 35.005C27.8485 35.0644 27.8671 35.1646 27.8671 35.2574Z" fill="#394149"/>
<path d="M31.7695 34.8194V34.3962H29.1782V37.3104H29.6385V36.0705H31.673V35.6361H29.6385V34.8194H31.7695Z" fill="#394149"/>
<path d="M33.8825 34.3442C33.2625 34.3442 32.8356 34.4964 32.5311 34.8157C32.275 35.0644 32.1636 35.4097 32.1636 35.844C32.1636 36.3192 32.3084 36.6756 32.5757 36.9169C32.8616 37.2028 33.2996 37.3512 33.8825 37.3512C34.4839 37.3512 34.9516 37.2028 35.2301 36.902C35.4714 36.657 35.5976 36.3081 35.5976 35.8403C35.5976 35.3874 35.4899 35.0421 35.2338 34.7971C34.9405 34.4927 34.5024 34.3442 33.8825 34.3442ZM33.8825 36.9355C33.4741 36.9355 33.1845 36.8464 32.9655 36.6682C32.7428 36.4863 32.6351 36.2078 32.6351 35.8514C32.6351 35.5173 32.7279 35.2389 32.9061 35.0718C33.1103 34.8788 33.4221 34.7637 33.8788 34.7637C34.3502 34.7637 34.6435 34.8751 34.8625 35.0681C35.0482 35.2315 35.1298 35.521 35.1298 35.8477C35.1298 36.1781 35.0445 36.4603 34.8551 36.631C34.6361 36.8352 34.328 36.9355 33.8825 36.9355Z" fill="#394149"/>
<path d="M39.0808 35.2203C39.0808 35.0124 39.0362 34.8602 38.9583 34.7377C38.8209 34.5335 38.5573 34.3962 38.1193 34.3962H36.2334V37.3104H36.69V36.0816H38.019L38.8321 37.3104H39.3666L38.4868 36.0036C38.7095 35.9777 38.884 35.8514 38.9768 35.6881C39.0437 35.5767 39.0808 35.4134 39.0808 35.2203ZM38.6204 35.2574C38.6204 35.3391 38.6019 35.4394 38.5685 35.5062C38.5091 35.6138 38.3717 35.6695 38.149 35.6732H36.6937C36.6937 35.6658 36.6937 34.812 36.6937 34.812H38.0636C38.342 34.812 38.4905 34.8788 38.5685 35.005C38.6019 35.0644 38.6204 35.1646 38.6204 35.2574Z" fill="#394149"/>
<path d="M43.5211 37.3104V34.3962H42.9197L41.7206 36.7944L40.5437 34.3962H39.9312V37.3104H40.373V35.0681L41.4718 37.3104H41.9544L43.0793 35.0681V37.3104H43.5211Z" fill="#394149"/>
<path d="M44.8245 36.5902H46.6399L47.0111 37.3104H47.5086L46.031 34.3962H45.4853L43.9595 37.3104H44.4458L44.8245 36.5902ZM46.4468 36.1781H45.025L45.6152 35.0607L45.7452 34.7897L45.8751 35.0607L46.4468 36.1781Z" fill="#394149"/>
<path d="M50.853 37.3104V34.3962H50.411V36.6607L48.481 34.3962H47.9575V37.3104H48.4067V35.031L50.352 37.3104H50.853Z" fill="#394149"/>
<path d="M54.858 36.2227H54.375C54.36 36.3563 54.308 36.49 54.215 36.5902C54.015 36.8241 53.696 36.9243 53.206 36.9243C52.794 36.9243 52.352 36.8092 52.14 36.5085C52.029 36.3675 51.958 36.1596 51.958 35.8477C51.958 35.5693 52.007 35.3614 52.114 35.2203C52.292 34.9345 52.667 34.786 53.195 34.786C53.707 34.786 54.03 34.927 54.201 35.1238C54.297 35.2277 54.353 35.3503 54.371 35.495H54.854C54.839 35.3317 54.787 35.1386 54.676 34.9753C54.438 34.6226 54 34.3442 53.198 34.3442C52.434 34.3442 51.977 34.5892 51.724 34.9567C51.561 35.1683 51.479 35.4653 51.479 35.844C51.479 36.2672 51.58 36.5791 51.754 36.7981C52.007 37.1434 52.493 37.3512 53.228 37.3512C53.982 37.3512 54.431 37.1248 54.654 36.7647C54.78 36.5902 54.843 36.3823 54.858 36.2227Z" fill="#394149"/>
<path d="M58.1804 37.3104V36.8835H55.9154V36.0519H58.0914V35.6287H55.9154V34.8194H58.1544V34.3962H55.4624V37.3104H58.1804Z" fill="#394149"/>
<path d="M24.2289 40.2054L24.7841 41.9142H26.5808L25.1273 42.9703L25.6825 44.679L24.2289 43.623L22.7753 44.679L23.3306 42.9703L21.877 41.9142H23.6737L24.2289 40.2054Z" fill="#394149"/>
<path d="M30.6387 40.2054L31.2052 41.9141H33.0386L31.5554 42.9702L32.1219 44.679L30.6387 43.6229L29.1555 44.679L29.722 42.9702L28.2388 41.9141H30.0722L30.6387 40.2054Z" fill="#394149"/>
<path d="M36.9976 40.2054L37.5642 41.9141H39.3975L37.9143 42.9702L38.4809 44.679L36.9976 43.6229L35.5144 44.679L36.0809 42.9702L34.5977 41.9141H36.4311L36.9976 40.2054Z" fill="#394149"/>
<path d="M43.3564 40.2054L43.9229 41.9141H45.7563L44.2731 42.9702L44.8396 44.679L43.3564 43.6229L41.8732 44.679L42.4397 42.9702L40.9565 41.9141H42.7899L43.3564 40.2054Z" fill="#394149"/>
<path d="M49.7661 40.2054L50.3211 41.9141H52.1181L50.6641 42.9702L51.2191 44.679L49.7661 43.6229L48.3124 44.679L48.8677 42.9702L47.4141 41.9141H49.2108L49.7661 40.2054Z" fill="#394149"/>
<path d="M27.3431 11.3762L27.7629 12.6682H29.1214L28.0224 13.4667L28.4422 14.7586L27.3431 13.9602L26.2441 14.7586L26.6639 13.4667L25.5649 12.6682H26.9234L27.3431 11.3762Z" fill="#394149"/>
<path d="M32.1896 11.3744L32.618 12.6664H34.0041L32.8827 13.4649L33.311 14.7568L32.1896 13.9583L31.0681 14.7568L31.4965 13.4649L30.375 12.6664H31.7612L32.1896 11.3744Z" fill="#394149"/>
<path d="M36.9972 11.3744L37.4255 12.6664H38.8117L37.6903 13.4649L38.1186 14.7568L36.9972 13.9583L35.8757 14.7568L36.3041 13.4649L35.1826 12.6664H36.5688L36.9972 11.3744Z" fill="#394149"/>
<path d="M41.8058 11.3744L42.2341 12.6664H43.6203L42.4989 13.4649L42.9272 14.7568L41.8058 13.9583L40.6843 14.7568L41.1127 13.4649L39.9912 12.6664H41.3774L41.8058 11.3744Z" fill="#394149"/>
<path d="M46.6512 11.3744L47.071 12.6664H48.4295L47.3305 13.4649L47.7503 14.7568L46.6512 13.9583L45.5522 14.7568L45.972 13.4649L44.873 12.6664H46.2314L46.6512 11.3744Z" fill="#394149"/>
<path fill-rule="evenodd" clip-rule="evenodd" d="M7.99376 34.6304C6.14116 23.0395 11.548 11.5717 22.3721 6.64709L22.472 6.86669C11.7568 11.7417 6.39467 23.0973 8.23197 34.5923C10.2647 47.3096 20.5241 54.9366 33.0876 55.3043L33.0805 55.5455C20.4191 55.1749 10.0474 47.4789 7.99376 34.6304Z" fill="#394149"/>
<path d="M20.025 9.60516C18.0247 9.65076 15.6836 10.7788 14.3022 12.4172C15.41 13.4459 17.1924 13.0656 18.4751 12.8552C20.3058 12.555 22.2526 11.9734 23.9801 11.1501C23.2698 9.63806 21.3564 9.57486 20.025 9.60516Z" fill="#394149"/>
<path d="M18.4518 7.13766C17.267 8.98326 15.855 10.8176 14.3184 12.4329C13.0328 11.2261 13.8088 9.21776 14.3335 7.96886C15.284 5.70586 17.5629 3.75436 19.9454 2.75586C20.5993 4.24356 19.179 6.00486 18.4518 7.13766Z" fill="#394149"/>
<path d="M14.2364 14.7807C12.3634 15.4465 10.7539 17.3207 9.9458 19.2023C11.2926 19.8285 12.8237 18.9242 13.9438 18.3221C15.4818 17.4953 17.0509 16.3545 18.2855 15.0343C17.17 13.8573 15.4762 14.3401 14.2364 14.7807Z" fill="#394149"/>
<path d="M11.9663 12.9365C11.5563 15.0415 10.8689 17.2233 9.96609 19.2119C8.39029 18.4687 8.45029 16.3401 8.51779 14.9855C8.63299 12.6734 9.92649 10.0368 11.7274 8.36121C12.8299 9.54321 12.2275 11.5956 11.9663 12.9365Z" fill="#394149"/>
<path d="M10.6325 21.4625C9.07184 22.6937 8.12584 24.9754 7.90674 27.0129C9.38314 27.1824 10.5632 25.8388 11.4413 24.917C12.6368 23.6619 13.7685 22.0877 14.4872 20.4408C13.0798 19.673 11.6491 20.6605 10.6325 21.4625Z" fill="#394149"/>
<path d="M7.9287 20.4231C8.207 22.5488 8.2076 24.8485 7.9292 27.0157C6.2122 26.8048 5.6427 24.7432 5.3063 23.4499C4.7255 21.2175 5.1149 18.3339 6.2463 16.1637C7.6602 16.9464 7.7509 19.0644 7.9287 20.4231Z" fill="#394149"/>
<path d="M9.40768 28.756C8.17268 30.5651 7.73838 33.4002 8.29378 35.679C9.92578 35.2926 10.7348 33.4449 11.3844 32.14C12.2477 30.4057 12.9774 28.3824 13.2386 26.3973C11.4685 26.0289 10.2212 27.5642 9.40768 28.756Z" fill="#394149"/>
<path d="M6.16582 28.5731C7.12802 30.8008 7.87892 33.2527 8.31832 35.6735C6.44662 36.0756 5.09952 34.1102 4.31692 32.807C2.92362 30.4872 2.51772 27.2713 3.02812 24.4961C4.74122 24.8396 5.57952 27.2161 6.16582 28.5731Z" fill="#394149"/>
<path d="M10.2716 36.6272C9.60851 38.8218 10.0694 41.8053 11.412 43.8685C12.8874 42.9079 13.0916 40.7937 13.3007 39.2778C13.5764 37.2774 13.7062 35.0614 13.3637 32.9871C11.4766 33.228 10.7145 35.1611 10.2716 36.6272Z" fill="#394149"/>
<path d="M6.99239 37.5666C8.64799 39.4663 10.1752 41.6323 11.4347 43.8542C9.72649 44.9206 7.72199 43.4637 6.50629 42.4327C4.34959 40.6038 2.94919 37.4953 2.61719 34.5647C4.41199 34.3235 5.99369 36.4205 6.99239 37.5666Z" fill="#394149"/>
<path d="M13.7511 44.0967C13.8934 46.6512 15.5565 49.3317 17.7709 50.8574C18.8403 49.3933 18.17 47.15 17.8052 45.5841C17.3141 43.4758 16.6344 41.2804 15.6243 39.3324C13.8629 40.2632 13.6574 42.4144 13.7511 44.0967Z" fill="#394149"/>
<path d="M10.773 46.2545C13.1721 47.5876 15.5643 49.1607 17.7885 50.8346C16.4565 52.5886 13.7941 51.8892 12.1437 51.3254C9.23529 50.3319 6.64239 47.7129 5.28809 44.8032C7.00519 43.9187 9.35579 45.467 10.773 46.2545Z" fill="#394149"/>
<path d="M20.584 50.3374C22.0239 52.9652 25.3052 54.6795 28.3952 55.0922C28.7278 53.1818 26.6607 51.2903 25.5343 50.0529C23.9306 48.2912 22.2595 46.463 20.3859 44.9398C18.9822 46.5696 19.7243 48.7685 20.584 50.3374Z" fill="#394149"/>
<path d="M18.5278 53.6678C21.8009 54.0081 25.1295 54.498 28.4007 55.0629C28.0884 57.4733 24.2633 57.8623 22.5268 58.0046C18.9663 58.2964 15.0055 56.8652 12.2476 54.4558C13.6174 52.844 16.7843 53.4866 18.5278 53.6678Z" fill="#394149"/>
<path d="M24.8319 4.62398C22.6344 5.25088 20.0622 6.44018 18.7915 8.63558C21.098 8.38418 23.3649 7.56348 25.5818 6.93818C28.065 6.23768 30.6797 5.71378 33.0839 4.74688C30.4509 3.69348 27.3471 3.90638 24.8319 4.62398Z" fill="#394149"/>
<path fill-rule="evenodd" clip-rule="evenodd" d="M67.3451 34.5923C69.1821 23.0973 63.8201 11.7419 53.1051 6.86669L53.2051 6.64709C64.0291 11.5718 69.4361 23.0395 67.5831 34.6304C65.5301 47.4789 55.1581 55.1749 42.4967 55.5455L42.4897 55.3043C55.0531 54.9366 65.3121 47.3096 67.3451 34.5923Z" fill="#394149"/>
<path d="M55.5522 9.60516C57.5522 9.65076 59.8932 10.7788 61.2752 12.4172C60.1672 13.4459 58.3842 13.0656 57.1022 12.8552C55.2712 12.555 53.3242 11.9734 51.5972 11.1501C52.3072 9.63806 54.2202 9.57486 55.5522 9.60516Z" fill="#394149"/>
<path d="M57.125 7.13766C58.31 8.98326 59.722 10.8176 61.258 12.4329C62.544 11.2261 61.768 9.21776 61.243 7.96886C60.293 5.70586 58.014 3.75436 55.631 2.75586C54.977 4.24356 56.398 6.00486 57.125 7.13766Z" fill="#394149"/>
<path d="M61.341 14.7807C63.214 15.4465 64.823 17.3207 65.631 19.2023C64.284 19.8285 62.753 18.9242 61.633 18.3221C60.095 17.4953 58.526 16.3545 57.292 15.0343C58.407 13.8573 60.101 14.3401 61.341 14.7807Z" fill="#394149"/>
<path d="M63.611 12.9365C64.021 15.0415 64.708 17.2233 65.611 19.2119C67.187 18.4687 67.127 16.3401 67.059 14.9855C66.944 12.6734 65.651 10.0368 63.85 8.36121C62.747 9.54321 63.35 11.5956 63.611 12.9365Z" fill="#394149"/>
<path d="M64.9443 21.4625C66.5053 22.6937 67.4513 24.9754 67.6703 27.0129C66.1943 27.1824 65.0143 25.8388 64.1363 24.917C62.9403 23.6619 61.8083 22.0877 61.0903 20.4408C62.4973 19.673 63.9283 20.6605 64.9443 21.4625Z" fill="#394149"/>
<path d="M67.6488 20.4231C67.3698 22.5486 67.3698 24.8485 67.6478 27.0157C69.3648 26.8048 69.9348 24.7432 70.2708 23.4499C70.8518 21.2175 70.4618 18.3339 69.3308 16.1637C67.9168 16.9464 67.8258 19.0644 67.6488 20.4231Z" fill="#394149"/>
<path d="M66.1694 28.756C67.4044 30.5651 67.8384 33.4002 67.2834 35.679C65.6514 35.2926 64.8424 33.445 64.1924 32.14C63.3294 30.4057 62.5994 28.3824 62.3384 26.3973C64.1084 26.0289 65.3564 27.5642 66.1694 28.756Z" fill="#394149"/>
<path d="M69.4108 28.5731C68.4488 30.8008 67.6978 33.2527 67.2588 35.6735C69.1298 36.0756 70.4768 34.1102 71.2598 32.807C72.6528 30.4872 73.0588 27.2713 72.5488 24.4961C70.8358 24.8396 69.9968 27.2161 69.4108 28.5731Z" fill="#394149"/>
<path d="M65.3052 36.6272C65.9682 38.8218 65.5082 41.8053 64.1652 43.8685C62.6902 42.9079 62.4852 40.7937 62.2762 39.2778C62.0012 37.2774 61.8712 35.0614 62.2132 32.9871C64.1002 33.228 64.8622 35.1611 65.3052 36.6272Z" fill="#394149"/>
<path d="M68.5841 37.5666C66.9291 39.4664 65.4021 41.6323 64.1421 43.8542C65.8501 44.9206 67.8551 43.4637 69.0711 42.4327C71.2271 40.6038 72.6281 37.4953 72.9601 34.5647C71.1651 34.3235 69.5831 36.4205 68.5841 37.5666Z" fill="#394149"/>
<path d="M61.825 44.0967C61.683 46.6512 60.02 49.3317 57.806 50.8574C56.736 49.3933 57.407 47.1501 57.771 45.5841C58.262 43.4758 58.942 41.2804 59.952 39.3324C61.714 40.2632 61.919 42.4144 61.825 44.0967Z" fill="#394149"/>
<path d="M64.8041 46.2545C62.4051 47.5876 60.0131 49.1607 57.7891 50.8346C59.1211 52.5886 61.7831 51.8892 63.4331 51.3254C66.3421 50.3319 68.9351 47.7129 70.2891 44.8032C68.5721 43.9187 66.2211 45.467 64.8041 46.2545Z" fill="#394149"/>
<path d="M54.9932 50.3374C53.5532 52.9652 50.2722 54.6795 47.1818 55.0922C46.8492 53.1818 48.9162 51.2903 50.0432 50.0529C51.6462 48.2912 53.3172 46.463 55.1912 44.9398C56.5952 46.5696 55.8522 48.7685 54.9932 50.3374Z" fill="#394149"/>
<path d="M57.0491 53.6678C53.7761 54.0081 50.4481 54.498 47.1763 55.0629C47.4887 57.4733 51.3141 57.8623 53.0501 58.0046C56.6111 58.2964 60.5721 56.8652 63.3291 54.4558C61.9601 52.844 58.7931 53.4866 57.0491 53.6678Z" fill="#394149"/>
<path d="M50.7453 4.62398C52.9423 5.25088 55.5153 6.44018 56.7853 8.63558C54.4793 8.38418 52.2123 7.56348 49.9953 6.93818C47.5121 6.23768 44.8974 5.71378 42.4932 4.74688C45.1263 3.69348 48.23 3.90638 50.7453 4.62398Z" fill="#394149"/>
<path d="M39.2178 3.4879L38.0903 1L36.984 3.4416L34.4111 1.8464L36.0644 5.3207H40.176L41.7696 1.8464L39.2178 3.4879Z" fill="#394149"/>
<path d="M40.1493 5.8606H36.0312V6.4683H40.1493V5.8606Z" fill="#394149"/>
<path d="M38.3845 52.8718L39.0481 54.914H41.1954L39.4582 56.1761L40.1217 58.2183L38.3845 56.9562L36.6473 58.2183L37.3109 56.1761L35.5737 54.914H37.721L38.3845 52.8718Z" fill="#394149"/>
</svg>
