<svg width="104" height="52" viewBox="0 0 104 52" fill="none" xmlns="http://www.w3.org/2000/svg">
<path d="M8.64841 11.1781C8.01311 9.5635 8.28891 7.707 8.87411 6.1456C9.48981 4.5026 10.5619 2.8641 12.1643 2C12.2438 3.7314 11.7149 5.442 11.137 6.9845C10.6173 8.3719 9.97961 9.85 8.92661 10.9974C8.76481 11.8668 8.64081 12.7338 8.55361 13.5968C8.90261 12.6851 9.46851 11.8541 10.1746 11.1859C11.0837 10.3255 12.436 9.6616 13.7054 10.0542C13.3336 11.4574 12.4861 12.8025 11.4824 13.7461C10.6924 14.4888 9.64951 15.4405 8.42111 15.4779C8.37051 16.7479 8.39911 18.0063 8.50361 19.2476C8.67691 18.3392 9.04821 17.4838 9.58471 16.8468C10.3217 15.9715 11.4145 14.9021 12.8101 15.081C12.7339 16.5012 12.1674 17.9563 11.3785 19.0497C10.7516 19.9186 9.92401 21.026 8.74931 21.3121C8.93741 22.5318 9.19941 23.7313 9.53181 24.905C9.53501 24.0063 9.73351 23.1242 10.1273 22.4167C10.6823 21.419 11.5467 20.1748 12.9439 20.0775C13.1487 21.4708 12.8712 22.9939 12.3114 24.2053C11.864 25.1736 11.2675 26.4084 10.1802 26.9193C10.6368 28.1821 11.1771 29.4096 11.7966 30.5944C11.5791 29.5732 11.5878 28.4971 11.8452 27.5289C12.1999 26.1941 13.0804 24.792 14.494 24.3851C14.9937 25.8587 14.9248 27.5033 14.6345 29.0011C14.3956 30.2343 13.9262 31.6827 12.874 32.4838C13.5619 33.5939 14.3229 34.6593 15.1528 35.673C14.7069 34.6788 14.4853 33.5915 14.6042 32.596C14.7774 31.1458 15.1849 29.5944 16.6662 28.8212C17.5066 30.2712 17.7013 31.8979 17.7727 33.5046C17.8304 34.8035 17.6433 36.4056 16.7412 37.4623C17.7335 38.494 18.8042 39.4596 19.9478 40.35C19.2095 39.4029 18.6925 38.2915 18.583 37.1924C18.4284 35.6395 18.504 33.93 19.8821 32.7904C21.0607 34.0214 21.764 35.8343 22.1087 37.4089C22.4135 38.8011 22.7317 40.4489 22.006 41.819C23.4614 42.769 25.0151 43.606 26.6578 44.3148C25.5019 43.4911 24.5557 42.361 24.1049 41.1942C23.5142 39.6647 23.1488 37.8422 24.2995 36.3104C25.8412 37.2979 26.9743 38.9827 27.867 40.5193C28.633 41.8378 29.4259 43.6576 29.0325 45.2279C29.942 45.5365 30.875 45.8075 31.8303 46.0387L31.7735 46.2732C30.8146 46.0411 29.878 45.7692 28.9648 45.4597C28.325 47.3504 26.2291 47.975 24.5341 48.2508C22.119 48.6437 19.2433 47.8824 17.1815 46.3488C18.2697 44.8109 20.49 44.6549 22.1642 44.5372L22.186 44.5357C24.0201 44.4068 26.0038 44.579 27.8482 45.0582C25.7175 44.2471 23.7238 43.2273 21.8854 42.0284L21.8583 42.0712C20.8509 43.7047 18.8283 43.7684 17.2407 43.6651C15.0864 43.5249 12.5992 42.215 11.1597 40.4043C12.5137 39.2163 14.5136 39.5488 16.0632 39.8064L16.0707 39.8076C17.8002 40.0951 19.6901 40.7223 21.2765 41.688C21.1254 41.569 20.9775 41.4431 20.8338 41.3111C19.2914 40.2114 17.8686 38.9813 16.5775 37.6401C16.5625 37.6551 16.5473 37.67 16.532 37.6848C15.2766 38.9477 13.4482 38.617 12.0213 38.206C10.1118 37.656 8.13151 35.9967 7.18251 34.0918C8.65311 33.2678 10.4113 33.9468 11.7789 34.4839C13.2799 35.0734 14.868 36.0164 16.0891 37.2185C15.9632 37.0597 15.8431 36.8938 15.7296 36.7221C14.5946 35.4411 13.5736 34.0694 12.676 32.6223L12.631 32.6505C11.2108 33.567 9.60171 32.9033 8.32641 32.2506C6.59731 31.3657 5.20781 29.4209 4.60741 27.5083C6.14131 27.017 7.65681 27.9813 8.83491 28.745C10.1234 29.5802 11.4286 30.7714 12.3245 32.1375C12.2587 32.0029 12.1974 31.8653 12.1409 31.7251C11.2801 30.2233 10.5488 28.6467 9.95681 27.0112L9.92631 27.0216L9.92381 27.0225C8.63251 27.5134 7.19451 26.7502 6.25701 25.9132C4.95401 24.75 4.03561 22.9617 3.82031 21.2146C5.16661 21.0402 6.43501 22.0818 7.30221 22.9702C8.30041 23.9927 9.19631 25.2012 9.74711 26.5435C9.70691 26.3977 9.67241 26.2496 9.64341 26.1C9.14221 24.5631 8.76251 22.9781 8.51221 21.3577L8.49271 21.3601L8.48611 21.3612C7.12091 21.5891 5.85871 20.5512 5.10461 19.5439C4.04661 18.1304 3.50121 16.1741 3.63791 14.401C4.99781 14.4961 6.03331 15.7898 6.70481 16.8363C7.48201 18.0478 8.12651 19.4189 8.40881 20.8533C8.40021 20.7392 8.39511 20.6244 8.39331 20.5093C8.18601 18.8601 8.11211 17.1771 8.17971 15.4733L8.17581 15.4731C6.78781 15.4231 5.76201 14.1344 5.23241 12.9913C4.47461 11.3555 4.35261 9.2878 4.85841 7.5452C6.18131 7.9165 6.91881 9.434 7.35411 10.6021C7.85601 11.9489 8.20631 13.4178 8.20911 14.8782C8.28131 13.653 8.42671 12.4181 8.64841 11.1781Z" fill="#394149"/>
<path d="M35.9857 8.1554V14.0052C35.9857 16.5781 33.6555 17.816 30.1238 17.816C26.8227 17.816 24.4561 16.5903 24.4561 13.7018V8.1554H27.7451V13.7018C27.7451 14.7334 28.631 15.3766 30.2573 15.3766C31.8108 15.3766 32.7332 14.7091 32.7332 13.7139V8.1554H35.9857Z" fill="#394149"/>
<path d="M46.9398 15.146V17.6825H37.8496V8.1554H41.1386V15.146H46.9398Z" fill="#394149"/>
<path d="M56.7137 10.5463V8.1554H45.3418V10.5463H49.359V17.6825H52.6844V10.5463H56.7137Z" fill="#394149"/>
<path fill-rule="evenodd" clip-rule="evenodd" d="M68.3806 9.1264C68.8176 9.5754 69.0246 10.1944 69.0246 11.056C69.0246 11.7964 68.8426 12.4275 68.5386 12.8522C68.1986 13.3134 67.6766 13.7018 67.0336 13.7989L69.9106 17.6825H66.2936L63.9266 14.3207H60.9778V17.6825H57.7373V8.1554H65.3226C66.8276 8.1554 67.8106 8.5195 68.3806 9.1264ZM65.7596 11.8571C65.8446 11.7114 65.8686 11.5172 65.8686 11.3595C65.8686 11.1774 65.8446 10.9832 65.7596 10.8619C65.5896 10.5463 65.2496 10.4614 64.7396 10.4614H60.9899V12.1969H64.8006C65.3226 12.1969 65.6386 12.0998 65.7596 11.8571Z" fill="#394149"/>
<path fill-rule="evenodd" clip-rule="evenodd" d="M74.2878 15.9228H79.4338L80.2708 17.6825H83.7788L78.9728 8.1554H75.0528L69.9678 17.6825H73.4018L74.2878 15.9228ZM78.4018 13.7867H75.3558L76.5578 11.493L76.9218 10.6191L77.2618 11.4808L78.4018 13.7867Z" fill="#394149"/>
<path fill-rule="evenodd" clip-rule="evenodd" d="M68.0328 19.4768C65.9968 19.4768 64.9258 20.4418 64.9258 21.8598C64.9258 23.4603 66.0498 24.2722 68.0328 24.2722C70.2158 24.2722 71.1338 23.3308 71.1338 21.8598C71.1338 20.3653 70.0978 19.4768 68.0328 19.4768ZM68.0328 23.0896C66.8738 23.0896 66.5378 22.613 66.5378 21.8775C66.5378 21.1538 66.9028 20.6772 68.0268 20.6772C69.2568 20.6772 69.5328 21.2126 69.5328 21.8775C69.5328 22.5836 69.1978 23.0896 68.0328 23.0896Z" fill="#394149"/>
<path d="M61.9081 24.2016V21.4656H58.8367V22.46H60.4783C60.4666 22.5365 60.4077 22.6836 60.3312 22.7718C60.1606 22.9719 59.7075 23.1484 59.1191 23.1484C58.5072 23.1484 58.113 22.9895 57.9012 22.7424C57.76 22.56 57.6776 22.3011 57.6776 21.9128C57.6776 21.5068 57.76 21.2303 57.9188 21.0479C58.1483 20.789 58.5366 20.6772 59.1074 20.6772C59.6193 20.6772 59.9723 20.7948 60.1371 20.9419C60.243 21.0302 60.3253 21.1538 60.343 21.2361H61.8669C61.8611 21.089 61.814 20.8537 61.7316 20.6831C61.3668 19.9417 60.5195 19.5004 59.078 19.5004C57.8247 19.5004 56.9833 19.8828 56.5185 20.4595C56.2125 20.8537 56.0713 21.3479 56.0713 21.901C56.0713 22.513 56.236 23.0366 56.5067 23.3838C56.9656 23.9781 57.7835 24.2722 58.7661 24.2722C59.6311 24.2722 60.2253 24.0663 60.6019 23.7545L60.6431 24.2016H61.9081Z" fill="#394149"/>
<path d="M45.8802 21.4068C47.0746 21.5362 47.5865 21.9599 47.5865 22.766C47.5865 23.7427 46.6333 24.2722 44.7563 24.2722C43.0088 24.2722 42.2557 23.778 41.9673 23.1308C41.9026 22.9778 41.8732 22.7895 41.8555 22.6718H43.5501C43.5619 22.7424 43.6031 22.8483 43.6619 22.9189C43.8031 23.0896 44.1973 23.1896 44.8681 23.1896C45.7331 23.1896 45.939 23.066 45.939 22.8366C45.939 22.5894 45.7272 22.5365 44.9446 22.4541C44.6328 22.4247 44.1385 22.3776 43.9326 22.36C42.4381 22.2246 41.885 21.7598 41.885 20.9655C41.885 20.1417 42.8617 19.5122 44.6445 19.5122C46.2273 19.5122 46.9628 19.9829 47.2688 20.5713C47.3629 20.7478 47.4217 20.9478 47.4394 21.089H45.7448C45.7389 21.0243 45.7154 20.9596 45.6507 20.8772C45.5212 20.7066 45.1917 20.5948 44.6033 20.5948C43.7737 20.5948 43.556 20.6948 43.556 20.9066C43.556 21.142 43.8326 21.195 44.7563 21.295C45.1152 21.3244 45.686 21.3832 45.8802 21.4068Z" fill="#394149"/>
<path fill-rule="evenodd" clip-rule="evenodd" d="M28.9877 19.977C29.2995 20.2241 29.476 20.6419 29.476 21.2479C29.476 21.7422 29.3525 22.1128 29.1171 22.3717C28.7994 22.7365 28.2757 22.9013 27.5932 22.9072C27.3813 22.9131 25.5691 22.9072 25.5691 22.9072V24.2016H23.9863V19.5828H27.5696C28.2051 19.5828 28.6876 19.7122 28.9877 19.977ZM27.8168 21.6068C27.8638 21.5245 27.8874 21.4185 27.8874 21.2714C27.8874 21.1185 27.8579 20.989 27.805 20.9184C27.705 20.7713 27.5167 20.7007 27.2107 20.7007H25.5573V21.8304H27.1989C27.5284 21.8304 27.7226 21.7539 27.8168 21.6068Z" fill="#394149"/>
<path fill-rule="evenodd" clip-rule="evenodd" d="M35.2666 20.0535C35.4785 20.2712 35.5785 20.5713 35.5785 20.989C35.5785 21.3479 35.4902 21.6539 35.3431 21.8598C35.1784 22.0834 34.9254 22.2717 34.6135 22.3188L36.008 24.2016H34.2546L33.1072 22.5718H31.6774V24.2016H30.1064V19.5828H33.7839C34.5135 19.5828 34.9901 19.7593 35.2666 20.0535ZM33.9957 21.3774C34.0369 21.3068 34.0486 21.2126 34.0486 21.1361C34.0486 21.0479 34.0369 20.9537 33.9957 20.8949C33.9133 20.7419 33.7486 20.7007 33.5015 20.7007H31.6833V21.5421H33.5309C33.7839 21.5421 33.9369 21.495 33.9957 21.3774Z" fill="#394149"/>
<path d="M41.3787 24.2016V23.0543H38.0661V22.4541H41.2434V21.3303H38.0661V20.736H41.3375V19.5828H36.5127V24.2016H41.3787Z" fill="#394149"/>
<path d="M53.312 20.7419V19.5828H47.7988V20.7419H49.7463V24.2016H51.3585V20.7419H53.312Z" fill="#394149"/>
<path d="M55.4326 19.5828V24.2016H53.8145V19.5828H55.4326Z" fill="#394149"/>
<path d="M64.2873 19.5828V24.2016H62.6689V19.5828H64.2873Z" fill="#394149"/>
<path d="M77.3771 19.5828V22.4188C77.3771 23.6662 76.2471 24.2664 74.5351 24.2664C72.9351 24.2664 71.7871 23.6721 71.7871 22.2717V19.5828H73.3821V22.2717C73.3821 22.7718 73.8111 23.0837 74.6001 23.0837C75.3531 23.0837 75.8001 22.7601 75.8001 22.2776V19.5828H77.3771Z" fill="#394149"/>
<path d="M83.729 22.766C83.729 21.9599 83.217 21.5362 82.023 21.4068C81.828 21.3832 81.258 21.3244 80.899 21.295C79.975 21.195 79.6981 21.142 79.6981 20.9066C79.6981 20.6948 79.916 20.5948 80.746 20.5948C81.334 20.5948 81.6641 20.7066 81.7931 20.8772C81.8581 20.9596 81.881 21.0243 81.887 21.089H83.582C83.564 20.9478 83.505 20.7478 83.411 20.5713C83.105 19.9829 82.37 19.5122 80.787 19.5122C79.004 19.5122 78.0271 20.1417 78.0271 20.9655C78.0271 21.7598 78.5811 22.2246 80.0751 22.36L80.1711 22.3685L80.331 22.3831L81.0871 22.4541C81.8701 22.5365 82.081 22.5894 82.081 22.8366C82.081 23.066 81.876 23.1896 81.011 23.1896C80.34 23.1896 79.946 23.0896 79.804 22.9189C79.746 22.8483 79.704 22.7424 79.693 22.6718H77.998C78.016 22.7895 78.045 22.9778 78.11 23.1308C78.398 23.778 79.151 24.2722 80.899 24.2722C82.776 24.2722 83.729 23.7427 83.729 22.766Z" fill="#394149"/>
<path fill-rule="evenodd" clip-rule="evenodd" d="M42.5836 25.9701C41.2605 25.9701 40.5645 26.5973 40.5645 27.5189C40.5645 28.559 41.2949 29.0867 42.5836 29.0867C44.0024 29.0867 44.5989 28.4749 44.5989 27.5189C44.5989 26.5476 43.9259 25.9701 42.5836 25.9701ZM42.5836 28.3181C41.8303 28.3181 41.6123 28.0083 41.6123 27.5303C41.6123 27.06 41.8494 26.7502 42.5798 26.7502C43.379 26.7502 43.5588 27.0982 43.5588 27.5303C43.5588 27.9892 43.3408 28.3181 42.5836 28.3181Z" fill="#394149"/>
<path d="M35.2257 28.1077C35.2257 27.5838 34.893 27.3084 34.1167 27.2243C33.9905 27.209 33.6196 27.1708 33.3863 27.1517C32.7859 27.0866 32.6062 27.0522 32.6062 26.8993C32.6062 26.7616 32.7477 26.6966 33.2869 26.6966C33.6693 26.6966 33.8834 26.7692 33.9676 26.8801C34.0096 26.9337 34.0249 26.9757 34.0288 27.0178H35.1301C35.1186 26.926 35.0804 26.796 35.0192 26.6813C34.8203 26.2989 34.3423 25.993 33.3136 25.993C32.155 25.993 31.5202 26.4021 31.5202 26.9375C31.5202 27.4538 31.8796 27.7559 32.8509 27.8438C32.9848 27.8553 33.306 27.8859 33.5087 27.905C34.0173 27.9585 34.1549 27.993 34.1549 28.1536C34.1549 28.3027 34.0211 28.383 33.459 28.383C33.023 28.383 32.7668 28.318 32.675 28.2071C32.6368 28.1612 32.61 28.0924 32.6024 28.0465H31.501C31.5125 28.123 31.5316 28.2453 31.5737 28.3448C31.7611 28.7654 32.2506 29.0866 33.3863 29.0866C34.6062 29.0866 35.2257 28.7425 35.2257 28.1077Z" fill="#394149"/>
<path fill-rule="evenodd" clip-rule="evenodd" d="M27.5899 28.1919C27.5899 28.3984 27.5325 28.6011 27.4178 28.7349C27.2419 28.9491 26.913 29.0408 26.4886 29.0408H23.8232V26.0389H26.4159C26.8289 26.0389 27.0928 26.1384 27.2381 26.2875C27.3681 26.4175 27.4255 26.5896 27.4255 26.7846C27.4255 26.9797 27.3796 27.1403 27.2802 27.2588C27.1998 27.3583 27.0622 27.4347 26.9169 27.4539C27.131 27.4806 27.3337 27.5877 27.4484 27.7368C27.544 27.8477 27.5899 28.016 27.5899 28.1919ZM26.3012 27.1403C26.3394 27.0982 26.3624 27.037 26.3624 26.9644C26.3624 26.8917 26.3394 26.8305 26.2897 26.7885C26.2362 26.7387 26.1367 26.7196 25.9914 26.7196H24.8251V27.2091H26.0182C26.1482 27.2091 26.2477 27.19 26.3012 27.1403ZM26.1291 28.3602C26.3088 28.3602 26.4159 28.3372 26.4771 28.2799C26.5153 28.2416 26.5306 28.1843 26.5306 28.1116C26.5306 28.0351 26.5115 27.9778 26.4656 27.9319C26.4083 27.8822 26.3088 27.8592 26.1406 27.8592H24.8251V28.3602H26.1291Z" fill="#394149"/>
<path d="M31.1908 28.2952V29.0408H28.0283V26.0389H31.164V26.7885H29.0378V27.1747H31.1028V27.9051H29.0378V28.2952H31.1908Z" fill="#394149"/>
<path d="M38.9474 26.0389V26.7923H37.6778V29.0408H36.6301V26.7923H35.3643V26.0389H38.9474Z" fill="#394149"/>
<path d="M48.0982 26.0389V26.7999H46.06V27.2244H48.0026V27.9778H46.06V29.0408H45.0312V26.0389H48.0982Z" fill="#394149"/>
<path d="M53.2794 26.7923V26.0389H49.6963V26.7923H50.9621V29.0408H52.0099V26.7923H53.2794Z" fill="#394149"/>
<path d="M57.1895 26.0389V29.0408H56.1646V27.951H54.6273V29.0408H53.6025V26.0389H54.6273V27.1326H56.1646V26.0389H57.1895Z" fill="#394149"/>
<path d="M60.9584 29.0408V28.2952H58.8054V27.9051H60.8704V27.1747H58.8054V26.7885H60.9316V26.0389H57.7959V29.0408H60.9584Z" fill="#394149"/>
<path d="M67.2987 26.0389H68.2887L67.1917 29.0408H66.0676C66.0676 29.0408 65.4667 27.2474 65.4627 27.1976C65.4597 27.2474 64.8547 29.0408 64.8547 29.0408H63.7347L62.6104 26.0389H63.7227C63.7227 26.0389 64.3737 27.928 64.3737 27.9739C64.3737 27.928 64.9737 26.0389 64.9737 26.0389H66.0487C66.0487 26.0389 66.6527 27.928 66.6527 27.9739C66.6527 27.928 67.2987 26.0389 67.2987 26.0389Z" fill="#394149"/>
<path fill-rule="evenodd" clip-rule="evenodd" d="M70.2524 25.9701C68.9294 25.9701 68.2334 26.5973 68.2334 27.5189C68.2334 28.559 68.9634 29.0867 70.2524 29.0867C71.6714 29.0867 72.2674 28.4749 72.2674 27.5189C72.2674 26.5476 71.5944 25.9701 70.2524 25.9701ZM70.2524 28.3181C69.4994 28.3181 69.2814 28.0083 69.2814 27.5303C69.2814 27.06 69.5184 26.7502 70.2484 26.7502C71.0484 26.7502 71.2274 27.0982 71.2274 27.5303C71.2274 27.9892 71.0094 28.3181 70.2524 28.3181Z" fill="#394149"/>
<path fill-rule="evenodd" clip-rule="evenodd" d="M76.0542 26.3449C76.1912 26.4864 76.2562 26.6814 76.2562 26.9529C76.2562 27.1862 76.1992 27.385 76.1032 27.5189C75.9962 27.6642 75.8322 27.7866 75.6292 27.8171L76.5352 29.0408H75.3962L74.6502 27.9816H73.7212V29.0408H72.7002V26.0389H75.0902C75.5642 26.0389 75.8742 26.1537 76.0542 26.3449ZM75.2282 27.2053C75.2542 27.1594 75.2622 27.0982 75.2622 27.0485C75.2622 26.9911 75.2542 26.93 75.2282 26.8917C75.1742 26.7923 75.0672 26.7655 74.9062 26.7655H73.7252V27.3124H74.9252C75.0902 27.3124 75.1892 27.2818 75.2282 27.2053Z" fill="#394149"/>
<path d="M79.7283 29.0408V28.2416H77.9003V26.0389H76.8643V29.0408H79.7283Z" fill="#394149"/>
<path fill-rule="evenodd" clip-rule="evenodd" d="M83.7828 27.4844C83.7828 27.951 83.7368 28.2034 83.5998 28.4405C83.3928 28.819 82.9838 29.0408 82.2608 29.0408H80.1348V26.0389H82.2378C82.9568 26.0389 83.3818 26.2416 83.5918 26.5896C83.7408 26.8229 83.7828 27.0714 83.7828 27.4844ZM82.0658 28.3028C82.3908 28.3028 82.5748 28.2263 82.6858 28.0581C82.7548 27.9548 82.7738 27.7139 82.7738 27.5036C82.7698 27.3124 82.7468 27.1097 82.6858 27.0179C82.5668 26.8382 82.3878 26.7732 82.0738 26.7732H81.1598V28.3028H82.0658Z" fill="#394149"/>
<path d="M42.7626 43.6405H41.178C41.178 43.6405 40.144 46.663 40.144 46.7364C40.144 46.663 39.1773 43.6405 39.1773 43.6405H37.458C37.458 43.6405 36.4974 46.663 36.4974 46.7364C36.4974 46.663 35.4573 43.6405 35.4573 43.6405H33.6768L35.4756 48.4434H37.2683C37.2683 48.4434 38.235 45.5739 38.2411 45.4944C38.2473 45.5739 39.2078 48.4434 39.2078 48.4434H41.0066L42.7626 43.6405Z" fill="#394149"/>
<path d="M44.9306 48.4434V43.6405H43.248V48.4434H44.9306Z" fill="#394149"/>
<path d="M51.4753 43.6405V48.4434H49.8355L47.4555 45.7697V48.4434H45.877V43.6405H47.6023L49.9089 46.2531V43.6405H51.4753Z" fill="#394149"/>
<path d="M58.0299 48.4434V43.6405H56.4636V46.2531L54.157 43.6405H52.4316V48.4434H54.0101V45.7697L56.3902 48.4434H58.0299Z" fill="#394149"/>
<path d="M64.0458 47.2503V48.4434H58.9854V43.6405H64.0028V44.8397H60.6007V45.4577H63.9048V46.6263H60.6007V47.2503H64.0458Z" fill="#394149"/>
<path fill-rule="evenodd" clip-rule="evenodd" d="M70.5132 45.1028C70.5132 44.6684 70.4092 44.3564 70.1892 44.13C69.9012 43.8241 69.4062 43.6405 68.6472 43.6405H64.8232V48.4434H66.4572V46.7486H67.9442L69.1372 48.4434H70.9602L69.5102 46.4856C69.8342 46.4366 70.0972 46.2408 70.2692 46.0083C70.4212 45.7942 70.5132 45.476 70.5132 45.1028ZM68.9222 45.2558C68.9222 45.3353 68.9102 45.4332 68.8672 45.5066C68.8062 45.629 68.6472 45.6779 68.3842 45.6779H66.4632V44.803H68.3532C68.6102 44.803 68.7822 44.8458 68.8672 45.0049C68.9102 45.0661 68.9222 45.164 68.9222 45.2558Z" fill="#394149"/>
<path d="M37.8767 35.167L37.2132 33.1248L36.5496 35.167H34.4023L36.1395 36.4291L35.476 38.4713L37.2132 37.2092L38.9503 38.4713L38.2868 36.4291L40.024 35.167H37.8767Z" fill="#394149"/>
<path d="M44.8741 33.1234L45.5512 35.1656H47.7423L45.9697 36.4278L46.6468 38.4699L44.8741 37.2078L43.1015 38.4699L43.7786 36.4278L42.0059 35.1656H44.197L44.8741 33.1234Z" fill="#394149"/>
<path d="M53.1498 35.1656L52.4728 33.1234L51.7957 35.1656H49.6045L51.3772 36.4278L50.7001 38.4699L52.4728 37.2078L54.2454 38.4699L53.5683 36.4278L55.341 35.1656H53.1498Z" fill="#394149"/>
<path d="M60.0733 33.1234L60.7504 35.1656H62.9415L61.1689 36.4278L61.846 38.4699L60.0733 37.2078L58.3007 38.4699L58.9778 36.4278L57.2051 35.1656H59.3963L60.0733 33.1234Z" fill="#394149"/>
<path d="M68.3969 35.1656L67.7329 33.1234L67.0689 35.1656H64.9219L66.6589 36.4278L65.9959 38.4699L67.7329 37.2078L69.4699 38.4699L68.8069 36.4278L70.5439 35.1656H68.3969Z" fill="#394149"/>
<path d="M96.2552 11.2224C96.8902 9.60787 96.6142 7.75117 96.0292 6.18977C95.4132 4.54687 94.3412 2.90817 92.7392 2.04407C92.6592 3.77557 93.1882 5.48607 93.7662 7.02857C94.2862 8.41587 94.9232 9.89387 95.9762 11.0412C96.1382 11.9104 96.2622 12.7772 96.3492 13.64C96.0002 12.7287 95.4352 11.8981 94.7292 11.2301C93.8202 10.3696 92.4672 9.70577 91.1982 10.0984C91.5702 11.5015 92.4172 12.8467 93.4212 13.7903C94.2112 14.533 95.2542 15.4846 96.4822 15.5221C96.5332 16.7922 96.5042 18.0507 96.3992 19.2921C96.2262 18.3837 95.8552 17.5283 95.3182 16.8913C94.5812 16.0159 93.4882 14.9466 92.0932 15.1255C92.1692 16.5457 92.7362 18.0008 93.5252 19.0942C94.1512 19.9631 94.9792 21.0706 96.1542 21.3567C95.9662 22.5762 95.7042 23.7755 95.3712 24.9491C95.3682 24.0505 95.1702 23.1684 94.7762 22.4609C94.2212 21.4633 93.3562 20.219 91.9592 20.1217C91.7542 21.515 92.0322 23.0381 92.5922 24.2495C93.0392 25.2178 93.6362 26.4526 94.7232 26.9635C94.2662 28.2265 93.7262 29.4543 93.1062 30.6392C93.3242 29.6178 93.3152 28.5415 93.0582 27.573C92.7032 26.2382 91.8232 24.836 90.4092 24.4292C89.9092 25.903 89.9782 27.5474 90.2692 29.0452C90.5082 30.2785 90.9772 31.7269 92.0292 32.528C91.3412 33.6387 90.5802 34.7046 89.7492 35.7188C90.1962 34.7242 90.4172 33.6363 90.2982 32.6404C90.1252 31.19 89.7182 29.6387 88.2372 28.8657C87.3962 30.3157 87.2012 31.9424 87.1302 33.5491C87.0722 34.8481 87.2592 36.4503 88.1622 37.5071C87.1692 38.5385 86.0992 39.5038 84.9562 40.394C85.6942 39.4469 86.2112 38.3356 86.3202 37.2366C86.4752 35.6837 86.4002 33.9743 85.0212 32.8346C83.8432 34.0656 83.1392 35.8785 82.7952 37.4531C82.4902 38.8452 82.1722 40.4931 82.8972 41.8632C81.4422 42.8134 79.8882 43.6505 78.2452 44.3595C79.4012 43.5357 80.3472 42.4054 80.7982 41.2384C81.3892 39.709 81.7542 37.8864 80.6042 36.3546C79.0622 37.3421 77.9292 39.0268 77.0362 40.5635C76.2702 41.8821 75.4772 43.702 75.8712 45.2723C74.9612 45.5809 74.0282 45.8519 73.0732 46.0831L73.1302 46.3176C74.0882 46.0855 75.0252 45.8136 75.9382 45.5041C76.5782 47.3947 78.6742 48.0195 80.3692 48.2952C82.7842 48.6881 85.6602 47.9269 87.7222 46.3932C86.6332 44.8553 84.4132 44.6993 82.7392 44.5816L82.7172 44.5801C80.8832 44.4512 78.8992 44.6234 77.0552 45.1027C79.1852 44.2916 81.1792 43.2716 83.0182 42.0726L83.0432 42.1126C84.0502 43.7488 86.0742 43.8128 87.6622 43.7094C89.8172 43.5692 92.3042 42.2593 93.7432 40.4486C92.3892 39.2608 90.3902 39.5931 88.8402 39.8506L88.8322 39.852C87.1032 40.1394 85.2142 40.7663 83.6282 41.7317C83.7792 41.6128 83.9262 41.4871 84.0702 41.3552C85.6122 40.2557 87.0342 39.0258 88.3252 37.6848C88.3432 37.7027 88.3612 37.7203 88.3792 37.7378C89.6352 38.9909 91.4582 38.6603 92.8822 38.2502C94.7922 37.7002 96.7722 36.0409 97.7212 34.136C96.2502 33.312 94.4922 33.9909 93.1252 34.5281C91.6222 35.1181 90.0332 36.0622 88.8112 37.2659C88.9372 37.1069 89.0582 36.9407 89.1722 36.7687C90.3072 35.487 91.3292 34.1145 92.2272 32.6665L92.2662 32.6906L92.2762 32.6969C93.6952 33.6101 95.3032 32.947 96.5772 32.2948C98.3062 31.4099 99.6962 29.4651 100.296 27.5525C98.7622 27.0612 97.2472 28.0255 96.0692 28.7892C94.7792 29.6249 93.4732 30.8169 92.5772 32.184C92.6432 32.0491 92.7052 31.9111 92.7622 31.7706C93.6232 30.2683 94.3542 28.6913 94.9462 27.0554L94.9772 27.0658L94.9822 27.0678C96.2732 27.5565 97.7102 26.7938 98.6472 25.9574C99.9492 24.7942 100.868 23.0059 101.083 21.2588C99.7372 21.0844 98.4682 22.126 97.6012 23.0143C96.6032 24.0375 95.7062 25.2468 95.1552 26.5902C95.1962 26.4436 95.2312 26.2947 95.2602 26.1442C95.7612 24.6074 96.1412 23.0225 96.3912 21.4023L96.4292 21.4073C97.7892 21.6275 99.0472 20.5926 99.7992 19.5881C100.857 18.1746 101.402 16.2183 101.265 14.4451C99.9062 14.5403 98.8702 15.8339 98.1992 16.8805C97.4212 18.0926 96.7762 19.4645 96.4942 20.8998C96.5032 20.785 96.5082 20.6696 96.5102 20.5538C96.7172 18.9045 96.7912 17.2214 96.7232 15.5176C98.1122 15.4689 99.1412 14.1793 99.6712 13.0357C100.428 11.4 100.55 9.33217 100.045 7.58967C98.7222 7.96097 97.9842 9.47827 97.5492 10.6464C97.0472 11.9932 96.6972 13.4623 96.6942 14.9227C96.6222 13.6975 96.4762 12.4625 96.2552 11.2224Z" fill="#394149"/>
</svg>
